<svg width="40" height="40" viewBox="0 0 40 40" fill="none" xmlns="http://www.w3.org/2000/svg">
<path d="M22.4117 34.8417C22.6876 34.7063 22.9202 34.4965 23.0831 34.2358C23.246 33.9751 23.3327 33.674 23.3333 33.3667V24.5C23.3333 24.0633 23.5083 23.6433 23.8217 23.3333L34.0233 13.2433C34.6483 12.625 35 11.785 35 10.91V6.65C34.9991 6.43216 34.9553 6.21663 34.871 6.01575C34.7868 5.81487 34.6637 5.63258 34.5089 5.47932C34.3541 5.32606 34.1706 5.20484 33.9688 5.12259C33.7671 5.04034 33.5512 4.99868 33.3333 5H6.66667C5.745 5 5 5.73667 5 6.65V10.91C5 11.785 5.35167 12.625 5.97667 13.2433L16.1783 23.3333C16.3329 23.4858 16.4557 23.6674 16.5395 23.8677C16.6233 24.068 16.6665 24.2829 16.6667 24.5V35.0167C16.6667 36.2417 17.97 37.0383 19.0783 36.49L22.4117 34.8417Z" fill="#149514"/>
</svg>
